<?xml version="1.0" encoding="utf-8"?>
<!-- Generator: Adobe Illustrator 16.0.0, SVG Export Plug-In . SVG Version: 6.00 Build 0)  -->
<!DOCTYPE svg PUBLIC "-//W3C//DTD SVG 1.1//EN" "http://www.w3.org/Graphics/SVG/1.1/DTD/svg11.dtd">
<svg version="1.1" id="Layer_1" xmlns="http://www.w3.org/2000/svg" xmlns:xlink="http://www.w3.org/1999/xlink" x="0px" y="0px"
	 width="247.561px" height="247.561px" viewBox="0 0 247.561 247.561" enable-background="new 0 0 247.561 247.561"
	 xml:space="preserve">
<circle fill="#86C553" cx="123.926" cy="123.366" r="118.17"/>
<g>
	<path fill="#FFFFFF" d="M182.809,112.562h-5.743v25.5h5.743c2.735,0,4.976-2.239,4.976-4.976v-15.549
		C187.785,114.801,185.544,112.562,182.809,112.562z"/>
	<path fill="#FFFFFF" d="M164.626,94.214H68.369c-2.737,0-4.976,2.239-4.976,4.976v52.244c0,2.736,2.238,4.976,4.976,4.976h96.258
		c2.736,0,4.976-2.239,4.976-4.976V99.19C169.602,96.453,167.363,94.214,164.626,94.214z M131.68,124.016l-20.445,22.475
		c-0.459,0.506-0.678,0.383-0.483-0.273l5.156-17.358c0.195-0.655,0.353-1.192,0.353-1.192s-0.562,0-1.246,0h-12.55
		c-0.683,0-0.867-0.414-0.405-0.92l20.627-22.614c0.462-0.505,0.679-0.384,0.483,0.272l-5.193,17.485
		c-0.195,0.656-0.229,1.193-0.073,1.193s0.841,0.001,1.525,0.002l11.847,0.01C131.958,123.096,132.142,123.511,131.68,124.016z"/>
</g>
</svg>
