<?xml version="1.0" encoding="utf-8"?>
<!-- Generator: Adobe Illustrator 16.0.0, SVG Export Plug-In . SVG Version: 6.00 Build 0)  -->
<!DOCTYPE svg PUBLIC "-//W3C//DTD SVG 1.1//EN" "http://www.w3.org/Graphics/SVG/1.1/DTD/svg11.dtd">
<svg version="1.1" id="Layer_1" xmlns="http://www.w3.org/2000/svg" xmlns:xlink="http://www.w3.org/1999/xlink" x="0px" y="0px"
	 width="229.268px" height="230.488px" viewBox="0 0 229.268 230.488" enable-background="new 0 0 229.268 230.488"
	 xml:space="preserve">
<g>
	<circle fill="#4DC5D6" cx="114.008" cy="116.063" r="108.328"/>
	<path fill="#EEE931" d="M59.394,114.164c-2.737-11.856-4.559-33.496,1.852-56.677c0.002-1.274,0.008-2.625,0.008-4.124
		c0-7.951,5.722-16.985,10.88-19.74c3.162-1.686,7.807-3.433,11.945-2.039c23.489-10.492,34.616,9.463,36.725,20.843
		c0.467,2.523,0.681,4.994,0.757,7.217c1.254,4.907,2.128,9.723,2.732,14.388c-6.083,3.47-9.913,8.735-10.773,14.925
		c-0.425,3.05-0.434,7.02-0.294,10.394c-1.853,1.688-3.411,4.627-3.435,9.739c0,3.55,0.548,6.69,1.573,9.331
		c-1.555-0.902-3.215-1.958-4.965-2.981c-4.086,3.013-9.055,4.74-14.998,4.74c-5.954,0-10.764-1.986-14.699-5.248
		C68.482,119.583,62.051,125.676,59.394,114.164z M98.425,180.767c0.853-7.941,2.087-18.011,3.131-20.913
		c1.949-5.405,7.201-11.775,16.107-13.467c1.12-0.21,4.057-0.952,8.996-3.386c-2.644-2.32-4.978-5.361-7.021-9.078
		c-6.024-2.346-11.278-4.975-12.867-5.767c-0.934,2.732-12.492,43.067-14.734,43.067c-2.244,0-14.227-40.438-15.088-43.23
		c-1.497,0.792-13.007,7.273-21.928,8.965c-9.506,1.802-15.06,8.563-17.061,14.112c-1.545,4.297-4.352,30.447-4.352,30.447h64.777
		C98.386,181.268,98.397,181.016,98.425,180.767z M153.389,176.497V156.63c0-2.508,0.81-4.889,2.242-6.85
		c-1.99-0.824-3.53-1.531-4.146-1.837c-0.59,1.729-4.868,3.688-9.06,3.688c-4.196,0-9.288-2.022-9.835-3.795
		c-0.949,0.504-7.968,4.373-13.621,5.446c-6.024,1.141-9.543,5.426-10.811,8.939c-0.979,2.722-2.757,19.294-2.757,19.294h49.138
		C153.808,179.993,153.389,178.294,153.389,176.497z M121.516,119.945c3.267,11.089,8.806,21.773,20.505,21.773
		c11.702,0,18.181-9.263,20.455-21.773c3.226-1.393,4.713-6.271,4.713-10.855c0-6.907-3.784-4.213-3.784-4.213
		c-0.107-0.334,0.721-9.642-0.363-15.47c-1.51-8.137-10.89-18.2-26.253-11.033c-2.962-0.998-6.282,0.25-8.543,1.457
		c-3.687,1.972-7.098,5.212-7.778,10.093c-0.679,4.882-0.077,13.115,0.208,14.676c-0.034,0.089-3.836-2.801-3.869,4.49
		C116.806,113.674,117.988,118.63,121.516,119.945z M172.622,147.158v-7.604c0-3.545,2.885-6.431,6.431-6.431
		c3.547,0,6.428,2.886,6.428,6.431v7.604h7.914v-7.604c0-7.912-6.432-14.347-14.342-14.347c-7.909,0-14.345,6.435-14.345,14.347
		v7.604H172.622z M193.07,151.294h-28.034c-2.946,0-5.333,2.387-5.333,5.336v19.866c0,2.949,2.388,5.337,5.333,5.337h28.034
		c2.947,0,5.336-2.388,5.336-5.337V156.63C198.406,153.681,196.017,151.294,193.07,151.294z M183.652,171.639
		c0.137,0.43,0.061,0.902-0.207,1.272c-0.271,0.365-0.697,0.582-1.152,0.582h-7.021c-0.455,0-0.881-0.217-1.151-0.582
		c-0.269-0.37-0.345-0.843-0.207-1.272l1.187-3.73c-1.299-1.08-2.068-2.68-2.068-4.396c0-3.169,2.578-5.749,5.749-5.749
		c3.17,0,5.75,2.58,5.75,5.749c0,1.716-0.771,3.312-2.066,4.392L183.652,171.639z"/>
</g>
</svg>
