<?xml version="1.0"?>
<svg width="180" height="180" xmlns="http://www.w3.org/2000/svg" xmlns:svg="http://www.w3.org/2000/svg" xmlns:xlink="http://www.w3.org/1999/xlink">
 <!-- Created with SVG-edit - http://svg-edit.googlecode.com/ -->
 <defs>
  <symbol id="svg_1" height="100" width="100" xmlns="http://www.w3.org/2000/svg">
   <path d="m23.25,79l-23.25,-12l0,-34.344002l51.75,-25.655998l23.25,12l0,34.5l-51.75,25.5z" fill="#24AE5F" clip-rule="evenodd" fill-rule="evenodd"/>
   <path d="m0,64.554001l0,2.983002l23.193001,11.931999l51.622002,-25.356003l0,-2.982998l-51.622002,25.355999l-23.193001,-11.931999zm0,-5.220001l0,2.983002l23.193001,11.931999l51.622002,-25.355l0,-2.984001l-51.622002,25.355999l-23.193001,-11.931999zm0,-10.440998l0,2.982998l23.193001,11.931999l51.622002,-25.355l0,-2.982998l-51.622002,25.355l-23.193001,-11.931999zm0,5.219997l0,2.983002l23.193001,11.931999l51.622002,-25.355999l0,-2.983002l-51.622002,25.356998l-23.193001,-11.932999zm0,-10.439999l0,2.982998l23.193001,11.932003l51.622002,-25.356003l0,-2.981998l-51.622002,25.355l-23.193001,-11.931999zm23.250999,1.461998l-23.250999,-12.050999l0,3.013l23.250999,12.049999l51.751999,-25.606998l0,-3.013l-51.751999,25.607998zm-23.250999,-6.681999l0,2.983002l23.250999,11.931999l51.751999,-25.356001l0,-2.983l-51.751999,25.355999l-23.250999,-11.931999z" fill="#1E9450" clip-rule="evenodd" fill-rule="evenodd"/>
   <path d="m48.132999,91.884003l-23.135,-11.933006l0,-29.303997l51.494997,-25.355l23.507004,12.007l0,29.000004l-51.867001,25.584999z" fill="#24AE5F" clip-rule="evenodd" fill-rule="evenodd"/>
   <path d="m25,77.084999l0,2.983002l23.25,11.931999l51.75,-25.356003l0,-2.982998l-51.75,25.355999l-23.25,-11.931999zm0,-5.220001l0,2.983002l23.25,11.931999l51.75,-25.355999l0,-2.982998l-51.75,25.354996l-23.25,-11.931zm0,-10.440998l0,2.982998l23.25,11.931999l51.75,-25.355995l0,-2.983002l-51.75,25.356003l-23.25,-11.932003zm0,5.219997l0,2.983002l23.25,11.932999l51.75,-25.355999l0,-2.982998l-51.75,25.354996l-23.25,-11.931999zm0,-10.439999l0,2.983002l23.25,11.932003l51.75,-25.356003l0,-2.983002l-51.75,25.356003l-23.25,-11.932003zm23.25,6.367001l-23.25,-11.931l0,2.983002l23.25,11.931999l51.75,-25.355999l0,-2.983002l-51.75,25.355z" fill="#1E9450" clip-rule="evenodd" fill-rule="evenodd"/>
   <path d="m23.193001,45.165001l-23.193001,-11.915001l0,34.344002l23.25,11.905998l-0.056999,-34.334999z" opacity="0.1"/>
   <path d="m48.193001,62.599998l-23.193001,-11.914997l0,29.291996l23.25,11.906006l-0.056999,-29.283005z" opacity="0.1"/>
   <path d="m59.995998,50.609001l-11.362999,5.459l-9.702,-5.220001l13.138,-6.436001s-0.911999,-2.619999 -0.354,-3.018997c-0.009998,0.046997 -19.386002,9.691998 -19.386002,9.691998l16.583,8.291l17.048,-8.522999s-1.668999,0.055 -3.147999,-0.006001c-1.501999,-0.060001 -2.816002,-0.237999 -2.816002,-0.237999zm13.446003,-3.496002l20.057999,-9.612999l-16.299004,-8.848999s-7.877998,3.938999 -17.031998,8.514999c2.582001,-0.132999 4.696999,0.978001 4.696999,0.978001l12.125999,-5.940002l10.448006,5.221001l-13.990005,6.720001l-0.007996,2.967999z" fill="#1E9450" clip-rule="evenodd" fill-rule="evenodd"/>
   <path d="m64.235001,46.958c0.714996,0.014999 1.377998,-0.085999 1.989998,-0.302002l-3.528999,-1.869999l-0.299999,0.077999l-0.383999,0.123001c-0.523003,0.157001 -1.059002,0.302002 -1.610001,0.432999c-0.550999,0.131001 -1.111,0.213001 -1.68,0.246002s-1.137001,-0.000999 -1.702,-0.101002c-0.566002,-0.099998 -1.130001,-0.299 -1.693001,-0.597c-0.574001,-0.303997 -0.973,-0.629997 -1.195999,-0.976997c-0.223,-0.348 -0.306,-0.694 -0.25,-1.040001c0.056,-0.346001 0.236,-0.686001 0.537998,-1.019001c0.302002,-0.334 0.686001,-0.640999 1.151001,-0.924l-1.299999,-0.688999l0.980999,-0.52l1.299999,0.688999c0.555,-0.235001 1.132999,-0.424999 1.734001,-0.57c0.601002,-0.145 1.210999,-0.23 1.831001,-0.255001c0.619999,-0.023998 1.249001,0.022003 1.886997,0.137001c0.638,0.116001 1.267002,0.319 1.886002,0.612l-2.361,1.250999c-0.460999,-0.232998 -0.983002,-0.362 -1.563999,-0.389c-0.581001,-0.025997 -1.060001,0.061001 -1.437,0.261002l2.988998,1.584l0.509003,-0.161999l0.558998,-0.171001c1.045002,-0.314999 1.956001,-0.501999 2.731003,-0.562c0.774994,-0.057999 1.448997,-0.048 2.019997,0.031002c0.570999,0.079998 1.056,0.204998 1.455002,0.374001c0.399002,0.170998 0.739998,0.330997 1.020996,0.48c0.248001,0.131001 0.499001,0.328999 0.754005,0.593998c0.254997,0.264999 0.404999,0.576 0.448997,0.934002c0.044998,0.357998 -0.058998,0.752998 -0.308998,1.183998c-0.250999,0.431 -0.764,0.882 -1.538002,1.353001l1.434998,0.761002l-0.980995,0.52l-1.435005,-0.761002c-1.332001,0.610001 -2.689995,0.917999 -4.074997,0.924c-1.384998,0.007 -2.797001,-0.313 -4.237,-0.959l2.343998,-1.242001c0.629002,0.346001 1.302002,0.526001 2.017002,0.541zm3.449997,-1.229c0.143005,-0.153 0.233002,-0.311001 0.270004,-0.473999c0.036995,-0.163002 0.012001,-0.326 -0.074005,-0.489002c-0.085999,-0.162998 -0.264,-0.315998 -0.534996,-0.459c-0.439003,-0.232998 -0.903999,-0.334999 -1.395004,-0.307999c-0.490997,0.028 -1.153999,0.167 -1.987995,0.417999l3.242001,1.717999c0.177002,-0.116997 0.337997,-0.251999 0.479996,-0.405998zm-10.604996,-3.338001c-0.121002,0.124001 -0.195004,0.255001 -0.220001,0.394001c-0.026001,0.139 0.007,0.277 0.098,0.413002c0.091,0.136997 0.255001,0.267998 0.492001,0.392998c0.371998,0.196999 0.774998,0.288002 1.209999,0.271999c0.435001,-0.015999 0.980999,-0.132999 1.637001,-0.348999l-2.753002,-1.458c-0.188,0.098999 -0.342999,0.210999 -0.463997,0.334999z" fill="#1E9450"/>
   <path d="m34.583,32.609001l-11.363001,5.459l-9.702,-5.220001l13.138,-6.435999s-0.913,-2.620001 -0.354,-3.019001c-0.01,0.047001 -19.386,9.691999 -19.386,9.691999l16.583001,8.291l17.048,-8.522999s-1.669003,0.055 -3.148003,-0.006001c-1.501999,-0.060001 -2.815998,-0.237999 -2.815998,-0.237999zm13.445999,-3.496l20.057999,-9.613001l-16.299,-8.849s-7.877998,3.939 -17.031998,8.515c2.582001,-0.132999 4.696999,0.977999 4.696999,0.977999l12.125999,-5.939999l10.448002,5.220999l-13.989002,6.720001l-0.008999,2.968z" fill="#1E9450" clip-rule="evenodd" fill-rule="evenodd"/>
   <path d="m38.821999,28.958c0.715,0.014999 1.378002,-0.085001 1.990002,-0.302l-3.529999,-1.870001l-0.300003,0.078001l-0.383999,0.122999c-0.522999,0.157 -1.060001,0.302 -1.610001,0.433001c-0.550999,0.131001 -1.111,0.212999 -1.68,0.246s-1.135998,-0.000999 -1.701998,-0.101c-0.566,-0.1 -1.130001,-0.299 -1.693001,-0.597c-0.573999,-0.304001 -0.973,-0.630001 -1.196001,-0.977001c-0.223,-0.348 -0.306,-0.693998 -0.25,-1.039999c0.057001,-0.346001 0.236,-0.684999 0.538,-1.018c0.302,-0.334 0.686001,-0.641001 1.151001,-0.924l-1.299999,-0.689001l0.980999,-0.52l1.299999,0.689001c0.555,-0.235001 1.133001,-0.425001 1.733999,-0.57c0.601002,-0.145 1.211002,-0.230001 1.831001,-0.255001c0.619999,-0.024 1.249001,0.022001 1.887001,0.137001c0.638,0.115999 1.266998,0.319 1.885998,0.612l-2.361,1.250999c-0.460999,-0.233 -0.982998,-0.362 -1.563999,-0.389c-0.580997,-0.025999 -1.059998,0.061001 -1.437,0.261l2.989002,1.584002l0.508999,-0.163l0.558998,-0.171001c1.045002,-0.314999 1.956001,-0.501999 2.731003,-0.561998c0.774998,-0.059 1.448997,-0.048 2.02,0.030998c0.570999,0.08 1.056,0.205 1.454998,0.375c0.399002,0.171001 0.740002,0.331001 1.021,0.480001c0.248001,0.130999 0.499001,0.328999 0.754002,0.594c0.254997,0.264999 0.404999,0.576 0.448997,0.934c0.045002,0.358 -0.058998,0.753 -0.308998,1.184c-0.250999,0.431 -0.764,0.882 -1.538002,1.352999l1.435001,0.761002l-0.980999,0.519999l-1.435001,-0.761c-1.332001,0.610001 -2.689999,0.918001 -4.075001,0.924c-1.384998,0.007 -2.796997,-0.313 -4.237,-0.959l2.344002,-1.242001c0.629997,0.345001 1.302998,0.525002 2.017998,0.540001zm3.450001,-1.229c0.143002,-0.153 0.233002,-0.311001 0.269001,-0.474001c0.036999,-0.163 0.012001,-0.325998 -0.074001,-0.488998c-0.085999,-0.163 -0.264,-0.316 -0.535,-0.460001c-0.438999,-0.233 -0.903999,-0.334999 -1.395,-0.308001l-1.987999,0.419001l3.242001,1.718c0.178001,-0.117001 0.338001,-0.252001 0.480999,-0.406zm-10.605,-3.337999c-0.121,0.123999 -0.195,0.254999 -0.219999,0.393999c-0.026001,0.139 0.007,0.277 0.098,0.413c0.091999,0.136999 0.254999,0.268 0.491999,0.393c0.372002,0.197001 0.775002,0.288 1.211002,0.272001c0.434998,-0.016001 0.980999,-0.133001 1.636997,-0.349001l-2.752998,-1.458c-0.188999,0.099001 -0.344,0.211 -0.465,0.335001z" fill="#1E9450"/>
  </symbol>
 </defs>
 <g>
  <title>Layer 1</title>
  <use x="5.625" y="6.875" transform="matrix(1.600000023841858,0,0,1.600000023841858,0,0) " xlink:href="#svg_1" id="svg_2"/>
  <ellipse stroke="#e74c3c" fill-opacity="0" ry="75.999995" rx="76.500004" id="svg_4" cy="88.999995" cx="89.500004" stroke-linecap="null" stroke-linejoin="null" stroke-dasharray="null" stroke-width="20" fill="#000000"/>
  <line transform="rotate(14.865357398986816 89.5,88.99999999999999) " id="svg_8" y2="147" x2="45" y1="31" x1="134" fill-opacity="0" stroke-linecap="null" stroke-linejoin="null" stroke-dasharray="null" stroke-width="20" stroke="#e74c3c" fill="none"/>
 </g>
</svg>